<svg version="1.1" id="Layer_1" xmlns="http://www.w3.org/2000/svg" viewBox="1313.517 271.668 538.526 222.005" xmlns:bx="https://boxy-svg.com">
  <defs>
    <linearGradient id="gradient-2" bx:pinned="true">
      <title>Light Blue</title>
      <stop style="stop-color: rgb(123, 171, 225);" offset="0.199"></stop>
      <stop style="stop-color: rgb(65, 141, 217);" offset="0.292"></stop>
    </linearGradient>
    <linearGradient id="gradient-12" bx:pinned="true">
      <title>Dark Blue</title>
      <stop style="stop-color: rgb(96, 110, 215);" offset="0.325"></stop>
      <stop style="stop-color: rgb(65, 85, 210);" offset="0.54"></stop>
    </linearGradient>
    <radialGradient id="gradient-2-0" href="#gradient-2" gradientUnits="userSpaceOnUse" cx="444.567" cy="202.422" r="39.191" gradientTransform="matrix(2.663822, 2.001545, -3.27829, 4.363021, -121.779396, -1542.780752)"></radialGradient>
    <radialGradient id="gradient-2-1" href="#gradient-2" gradientUnits="userSpaceOnUse" cx="447.926" cy="204.231" r="39.191" gradientTransform="matrix(2.06252, 1.468609, -1.552573, 2.180437, -316.994112, -922.961042)"></radialGradient>
    <radialGradient id="gradient-2-2" href="#gradient-2" gradientUnits="userSpaceOnUse" cx="444.567" cy="202.422" r="39.191" gradientTransform="matrix(1.277631, 0.959986, -1.572342, 2.092607, 42.500082, -673.686083)"></radialGradient>
    <radialGradient id="gradient-0" cx="451.263" cy="203.11" r="39.191" gradientUnits="userSpaceOnUse" gradientTransform="matrix(1.127501, 0.802832, -0.848732, 1.191961, -35.730279, -420.278392)">
      <stop style="stop-color: rgb(97, 156, 217);" offset="0.199"></stop>
      <stop style="stop-color: rgb(65, 141, 217);" offset="0.292"></stop>
    </radialGradient>
    <radialGradient id="gradient-2-3" href="#gradient-2" gradientUnits="userSpaceOnUse" cx="446.248" cy="203.463" r="39.191" gradientTransform="matrix(0.857339, 0.610465, -0.645368, 0.906354, 45.538025, -275.034473)"></radialGradient>
    <radialGradient id="gradient-2-4" href="#gradient-2" gradientUnits="userSpaceOnUse" cx="443.402" cy="205.756" r="39.191" gradientTransform="matrix(0.981218, 0.698673, -0.738619, 1.037315, 8.273086, -341.634361)"></radialGradient>
    <radialGradient id="gradient-1" cx="439.711" cy="203.392" r="39.191" gradientUnits="userSpaceOnUse" gradientTransform="matrix(1.320418, 0.894615, -1.497062, 2.209595, 8.34638, -668.428156)">
      <stop style="stop-color: rgb(123, 171, 225);" offset="0.111"></stop>
      <stop style="stop-color: rgb(65, 141, 217);" offset="0.358"></stop>
    </radialGradient>
    <radialGradient id="gradient-2-5" href="#gradient-2" gradientUnits="userSpaceOnUse" cx="440.813" cy="206.586" r="39.191" gradientTransform="matrix(0.643113, 0.554035, -0.760097, 0.882304, 166.171419, -244.33866)"></radialGradient>
    <radialGradient id="gradient-2-6" href="#gradient-2" gradientUnits="userSpaceOnUse" cx="440.813" cy="206.586" r="39.191" gradientTransform="matrix(0.821571, 0.707773, -0.971015, 1.127135, 128.082275, -363.721773)"></radialGradient>
    <radialGradient id="gradient-3" cx="443.192" cy="202.393" r="39.191" gradientUnits="userSpaceOnUse" gradientTransform="matrix(1.818675, 1.366523, -2.238196, 2.978773, 149.871803, -523.712452)">
      <stop style="stop-color: rgb(123, 171, 225);" offset="0.12"></stop>
      <stop style="stop-color: rgb(65, 141, 217);" offset="0.292"></stop>
    </radialGradient>
    <radialGradient id="gradient-4" cx="443.192" cy="202.393" r="39.191" gradientUnits="userSpaceOnUse" gradientTransform="matrix(1.652712, 1.241823, -2.033951, 2.706945, 183.7671, -412.055106)">
      <stop style="stop-color: rgb(123, 171, 225);" offset="0.12"></stop>
      <stop style="stop-color: rgb(65, 141, 217);" offset="0.292"></stop>
    </radialGradient>
    <radialGradient id="gradient-5" cx="443.192" cy="202.393" r="39.191" gradientUnits="userSpaceOnUse" gradientTransform="matrix(1.61776, -0.116525, 0.17432, 2.420106, -242.939697, 251.888404)">
      <stop style="stop-color: rgb(123, 171, 225);" offset="0.12"></stop>
      <stop style="stop-color: rgb(65, 141, 217);" offset="0.292"></stop>
    </radialGradient>
    <radialGradient id="gradient-6" cx="432.317" cy="203.009" r="39.191" gradientUnits="userSpaceOnUse" gradientTransform="matrix(0.904974, -0.065184, 0.097515, 1.353806, 93.789296, 449.269624)">
      <stop style="stop-color: rgb(123, 171, 225);" offset="0.098"></stop>
      <stop style="stop-color: rgb(65, 141, 217);" offset="0.466"></stop>
    </radialGradient>
    <radialGradient id="gradient-7" cx="445.467" cy="204.493" r="39.191" gradientUnits="userSpaceOnUse" gradientTransform="matrix(0.899899, -0.016434, 0.025192, 1.379339, 107.801149, 421.168951)">
      <stop style="stop-color: rgb(123, 171, 225);" offset="0.105"></stop>
      <stop style="stop-color: rgb(65, 141, 217);" offset="0.466"></stop>
    </radialGradient>
    <radialGradient id="gradient-8" cx="449.724" cy="206.041" r="39.191" gradientUnits="userSpaceOnUse" gradientTransform="matrix(0.56315, -0.010285, 0.015765, 0.863179, 262.539635, 525.461215)">
      <stop style="stop-color: rgb(123, 171, 225);" offset="0.182"></stop>
      <stop style="stop-color: rgb(65, 141, 217);" offset="0.466"></stop>
    </radialGradient>
    <radialGradient id="gradient-9" cx="441.186" cy="204.396" r="39.191" gradientUnits="userSpaceOnUse" gradientTransform="matrix(0.998436, 0.750207, -1.228748, 1.635318, 317.394222, 28.135683)">
      <stop style="stop-color: rgb(123, 171, 225);" offset="0.199"></stop>
      <stop style="stop-color: rgb(65, 141, 217);" offset="0.441"></stop>
    </radialGradient>
    <radialGradient id="gradient-10" cx="447.134" cy="202.428" r="39.191" gradientUnits="userSpaceOnUse" gradientTransform="matrix(0.697387, 0.524004, -0.858256, 1.142236, 378.878507, 230.677282)">
      <stop style="stop-color: rgb(123, 171, 225);" offset="0.199"></stop>
      <stop style="stop-color: rgb(65, 141, 217);" offset="0.441"></stop>
    </radialGradient>
    <radialGradient id="gradient-12-0" href="#gradient-12" gradientUnits="userSpaceOnUse" cx="379.632" cy="908.476" r="44.861" gradientTransform="matrix(1.406586, 1.479977, -1.49002, 1.416131, 1129.094158, -947.661079)"></radialGradient>
    <radialGradient id="gradient-11" cx="371.792" cy="908.473" r="44.861" gradientUnits="userSpaceOnUse" gradientTransform="matrix(0.998354, 1.079287, -1.079287, 0.998355, 783.825476, -403.515157)">
      <stop style="stop-color: rgb(96, 110, 215);" offset="0.274"></stop>
      <stop style="stop-color: rgb(65, 85, 210);" offset="0.54"></stop>
    </radialGradient>
    <radialGradient id="gradient-13" cx="367.595" cy="902.648" r="44.861" gradientUnits="userSpaceOnUse" gradientTransform="matrix(0.035279, 0.836083, -0.826062, 0.034858, 924.000054, 669.277451)">
      <stop style="stop-color: rgb(96, 110, 215);" offset="0.274"></stop>
      <stop style="stop-color: rgb(65, 85, 210);" offset="0.607"></stop>
    </radialGradient>
    <radialGradient id="gradient-14" cx="379.644" cy="911.733" r="44.861" gradientUnits="userSpaceOnUse" gradientTransform="matrix(0.668109, 1.038617, -1.439255, 0.925831, 1340.111595, -204.84671)">
      <stop style="stop-color: rgb(96, 110, 215);" offset="0.274"></stop>
      <stop style="stop-color: rgb(65, 85, 210);" offset="0.468"></stop>
    </radialGradient>
    <radialGradient id="gradient-15" cx="378.462" cy="907.775" r="44.861" gradientUnits="userSpaceOnUse" gradientTransform="matrix(0.369602, 0.322795, -0.527187, 0.603634, 744.988961, 405.937928)">
      <stop style="stop-color: rgb(96, 110, 215);" offset="0.102"></stop>
      <stop style="stop-color: rgb(65, 85, 210);" offset="0.597"></stop>
    </radialGradient>
    <radialGradient id="gradient-16" cx="383.114" cy="912.07" r="44.861" gradientUnits="userSpaceOnUse" gradientTransform="matrix(0.816818, 0.947201, -1.557045, 1.342721, 1577.092435, -599.129435)">
      <stop style="stop-color: rgb(96, 110, 215);" offset="0.233"></stop>
      <stop style="stop-color: rgb(65, 85, 210);" offset="0.411"></stop>
    </radialGradient>
    <radialGradient id="gradient-17" cx="373.507" cy="906.74" r="44.861" gradientUnits="userSpaceOnUse" gradientTransform="matrix(0.134683, 0.427035, -0.748902, 0.236197, 1196.611799, 568.206507)">
      <stop style="stop-color: rgb(96, 110, 215);" offset="0.12"></stop>
      <stop style="stop-color: rgb(65, 85, 210);" offset="0.653"></stop>
    </radialGradient>
    <radialGradient id="gradient-18" cx="370.295" cy="902.025" r="44.861" gradientUnits="userSpaceOnUse" gradientTransform="matrix(0.221142, 0.549667, -0.569008, 0.228923, 677.784427, 447.446001)">
      <stop style="stop-color: rgb(96, 110, 215);" offset="0.274"></stop>
      <stop style="stop-color: rgb(65, 85, 210);" offset="0.54"></stop>
    </radialGradient>
    <bx:export>
      <bx:file format="svg" href="#object-0" path="Flask.svg"></bx:file>
      <bx:file format="svg" href="#object-1" path="Cork.svg"></bx:file>
      <bx:file format="svg" href="#object-2" path="Rope.svg"></bx:file>
      <bx:file format="svg" href="#object-3" path="Flask Opening.svg"></bx:file>
      <bx:file format="svg" href="#object-4" path="Dark Liquid.svg"></bx:file>
      <bx:file format="svg" href="#object-5" path="Light Liquid.svg"></bx:file>
      <bx:file format="svg" href="#object-7" path="Outside Drops.svg"></bx:file>
      <bx:file format="svg" href="#object-8" path="Inside Light Droplets.svg"></bx:file>
      <bx:file format="svg" href="#object-9" path="Inside Dark Droplets.svg"></bx:file>
      <bx:file format="svg"></bx:file>
    </bx:export>
  </defs>
  <g style="" transform="matrix(0.176038, 0, 0, 0.176038, 1403.653198, 274.5755)">
    <bx:title>Potion Logo</bx:title>
    <path fill="#A6A7A5" opacity="1.000000" stroke="none" d="M 375.134 571.896 C 385.373 583.95 397.079 594.386 410.845 602.161 C 424.311 609.767 438.64 615.401 453.796 618.928 C 473.862 623.598 493.228 630.426 511.451 640.059 C 523.904 646.642 536.379 653.38 548.017 661.27 C 567.657 674.585 585.09 690.555 600.596 708.605 C 615.521 725.977 628.246 744.821 638.221 765.396 C 643.227 775.718 647.33 786.513 651.283 797.299 C 654.525 806.141 657.4 815.174 659.634 824.318 C 665.358 847.75 667.706 871.595 667.181 895.718 C 666.356 933.607 658.553 970.111 642.683 1004.416 C 634.23 1022.686 623.428 1039.965 612.663 1057.046 C 600.541 1076.28 584.754 1092.599 567.842 1107.696 C 545.794 1127.377 521.288 1143.327 494.572 1156.137 C 472.398 1166.768 449.236 1174.307 425.398 1179.48 C 402.727 1184.4 379.593 1186.427 356.295 1185.839 C 319.181 1184.902 283.436 1177.429 249.292 1162.953 C 228.962 1154.333 209.368 1144.079 192.224 1129.954 C 179.14 1119.174 166.091 1108.227 154.084 1096.29 C 135.288 1077.603 120.423 1055.803 108.888 1031.973 C 102.823 1019.445 97.713 1006.371 93.237 993.182 C 89.109 981.02 85.494 968.536 83.254 955.909 C 77.872 925.564 77.522 895.042 82.048 864.455 C 86.048 837.42 93.754 811.476 105.23 786.805 C 114.11 767.714 124.898 749.624 137.578 732.654 C 151.821 713.593 167.94 696.384 186.292 681.346 C 207.15 664.254 214.944 640.899 219.155 615.62 C 219.204 615.326 223.418 577.323 223.231 571.519 C 223.789 571.314 219.258 551.051 219.21 551.123 C 215.623 538.071 212.036 525.018 208.535 511.873 L 187.616 441.609 C 186.626 440.157 187.918 437.692 184.399 435.774 C 179.64 433.978 174.539 431.422 169.753 429.697 C 163.208 427.337 161.558 418.494 165.206 412.393 C 170.838 402.973 179.8 397.459 188.828 391.99 C 208.122 380.304 229.574 374.468 251.18 369.145 C 269.668 364.59 288.438 362.455 307.438 364.86 C 311.926 365.428 316.394 367.189 320.557 369.088 C 330.768 373.748 329.734 384.942 324.154 391.023 C 322.27 393.077 320.423 395.165 318.12 397.628 C 315.851 400.119 319.466 425.952 319.528 425.883 C 320.632 429.35 342.26 508.782 342.26 508.782 C 343.049 511.333 357.239 546.142 359.481 550.611 C 361.584 555.505 369.406 563.413 375.134 571.896 Z" style="" id="object-0">
      <bx:title>Flask</bx:title>
    </path>
    <g style="pointer-events: none;" id="object-1">
      <bx:title>Cork</bx:title>
      <path fill="#C78741" opacity="1.000000" stroke="none" d="M 179.425 188.59 C 182.743 193.223 216.478 247.621 220.305 255.603 C 226.556 262.446 222.558 271.599 221.302 272.754 C 221.398 282.046 182.052 326.608 161.13 331.941 C 151.995 338.084 142.951 332.27 141.341 330.193 C 137.236 326.682 84.173 292.005 80.049 288.169 C 74.451 283.861 73.157 278.061 74.577 271.358 C 77.507 257.53 85.058 246.197 93.615 235.33 C 104.435 221.592 117.032 209.642 130.823 199.038 C 139.951 192.02 149.552 185.487 161.011 182.515 C 169.539 180.303 175.006 181.963 179.425 188.59 Z"></path>
      <path fill="#8E602D" opacity="1.000000" stroke="none" d="M 179.564 188.933 C 180.096 189.261 180.536 190.138 180.825 190.614 C 188.779 203.713 206.309 231.271 206.281 231.586 C 203.706 261.348 193.86 289.529 179.63 315.899 C 178.793 317.449 180.211 320.974 180.026 321.248 C 173.369 327.299 163.745 333.327 154.625 334.511 C 149.857 335.13 144.707 334.272 141.047 330.008 C 140.641 327.479 140.468 324.947 140.025 323.201 C 137.446 313.051 127.986 309.692 118.977 314.889 C 109.686 308.855 100.792 302.83 91.308 296.198 C 91.671 291.543 92.054 286.96 92.822 282.944 C 93.172 281.115 93.752 278.842 95.052 277.768 C 100.034 273.652 105.298 269.865 110.579 266.129 C 112.008 265.118 113.867 264.15 115.534 264.14 C 121.816 264.104 125.783 260.426 127.623 255.305 C 129.478 250.145 132.956 246.697 136.481 242.995 C 140.833 238.424 145.447 234.016 149.184 228.972 C 152.431 224.589 155.644 222.112 161.474 222.899 C 172.391 224.374 180.438 209.181 173.724 201.124 C 173.112 200.39 172.653 198.724 173.059 198.082 C 175.054 194.922 177.365 191.963 179.564 188.933 M 164.035 271.94 C 173.931 265.049 173.837 253.021 163.702 246.485 C 158.925 243.404 153.897 243.906 149.027 246.499 C 144.422 248.952 141.768 252.505 141.877 258.066 C 142.084 268.632 151.569 275.017 164.035 271.94 M 162.417 296.057 C 159.111 294.123 155.728 292.937 152.266 295.605 C 149.249 297.93 147.75 303.918 149.73 306.863 C 151.917 310.118 154.785 312.754 159.236 311.69 C 163.5 310.672 165.506 307.396 164.914 302.089 C 164.705 300.211 163.655 298.426 162.417 296.057 M 123.755 292.091 C 123.975 291.462 124.499 290.756 124.362 290.217 C 123.631 287.333 123.516 283.78 121.714 281.797 C 118.947 278.754 115.068 279.864 111.56 281.671 C 108.336 283.332 107.174 286.205 108.17 289.151 C 108.971 291.52 110.941 294.169 113.112 295.248 C 116.759 297.062 120.6 296.257 123.755 292.091 M 187.08 236.444 C 187.8 237.877 188.16 239.915 189.322 240.608 C 191.269 241.769 194.037 243.051 195.885 242.466 C 197.801 241.86 200.21 239.126 200.258 237.267 C 200.313 235.099 198.544 232.195 196.677 230.813 C 193.027 228.113 189.151 230.331 187.08 236.444 Z" style=""></path>
      <path fill="#68451E" opacity="1.000000" stroke="none" d="M 178.393 322.526 C 178.557 320.834 178.793 317.449 179.63 315.899 C 193.86 289.529 201.654 261.297 204.229 231.535 C 204.257 231.22 204.657 230.221 205.031 229.594 C 211.163 239.093 217.975 248.986 222.664 259.345 C 224.485 263.367 223.83 269.74 221.633 274.065 C 212.232 292.567 197.397 307.809 181.106 320.395 C 180.598 320.787 179.354 322.235 178.393 322.526 Z" style=""></path>
    </g>
    <g style="" id="object-2">
      <bx:title>Rope</bx:title>
      <path fill="#885E31" opacity="1.000000" stroke="none" d="M 359.58 550.974 C 362.081 552.316 364.806 553.37 367.012 555.09 C 368.78 556.469 369.999 559.342 370.81 561.432 C 366.292 562.283 362.242 561.943 358.397 562.825 C 349.905 564.774 341.43 566.828 333.035 569.153 C 325.591 571.215 318.264 573.702 310.588 576 C 309.894 575.996 309.946 576.112 309.131 576.114 C 301.651 577.771 294.111 579.19 287.086 580.988 C 278.422 583.205 269.836 585.729 261.174 587.956 C 249.208 591.034 237.185 593.892 225.233 597.02 C 223.416 597.495 221.9 599.284 220.217 600.269 C 217.817 596.641 218.522 593.415 222.985 591.107 C 229.161 589.591 234.61 588.243 240.276 586.803 C 240.76 586.521 240.938 586.268 241.022 585.987 C 241.016 586.021 240.948 586.007 241.354 586.008 C 243.851 585.529 245.956 585.097 248.033 584.561 C 260.376 581.375 272.702 578.124 285.053 574.971 C 306.045 569.611 327.051 564.307 348.461 558.978 C 353.12 558.114 352.879 555.658 349.468 554.666 C 346.022 553.663 343.767 551.606 340.569 549.886 C 338.404 548.722 335.656 547.024 333.505 545.826 C 319.779 538.175 306.628 530.336 292.803 522.865 C 289.001 520.811 286.916 518.192 289.763 513.949 C 300.167 519.384 310.825 524.908 320.914 530.223 C 323.052 531.349 325.575 532.979 327.681 532.681 C 332.524 531.995 337.22 530.266 342.285 529.037 C 352.238 527.889 337.539 538.233 339.278 540.046 C 343.744 542.87 348.061 545.827 352.498 548.18 C 354.726 549.361 357.211 550.058 359.58 550.974 Z"></path>
      <path fill="#744F28" opacity="1.000000" stroke="none" d="M 290.041 513.992 C 287.552 518.271 289.595 520.526 293.397 522.58 C 307.222 530.051 320.947 537.708 334.673 545.359 C 336.824 546.557 338.694 548.265 340.859 549.429 C 344.057 551.149 347.278 553.03 350.724 554.033 C 354.135 555.025 357.837 555.013 361.62 556.39 C 357.37 557.252 353.545 558.382 348.714 558.951 C 341.469 554.654 334.254 550.572 327.768 546.297 C 324.633 544.23 321.754 544.393 318.465 545.253 C 298.212 550.554 277.937 555.767 257.687 561.08 C 255.983 561.527 253.62 562.044 252.915 563.293 C 248.706 570.74 244.894 578.411 240.948 586.007 C 240.948 586.007 241.016 586.021 240.765 586.006 C 240.363 586.292 240.211 586.593 240.059 586.894 C 234.61 588.243 228.599 589.93 222.727 591.268 C 222.367 590.962 223.433 589.237 224.218 588.893 C 228.329 587.018 232.496 587.23 234.802 584.459 C 239.059 579.342 242 573.132 245.503 567.385 C 249.211 561.301 252.951 555.235 256.647 549.143 C 259.973 543.66 262.797 537.795 266.693 532.755 C 270.593 527.708 274.017 522.795 275.353 516.32 C 275.683 514.724 277.203 513.363 278.503 512.153 C 284.213 506.838 281.581 506.863 279.77 500.273 C 280.804 498.572 282.091 496.359 283.237 494.759 C 285.684 495.312 288.411 495.69 290.784 496.716 C 292.502 498.162 293.798 499.773 294.974 500.913 C 291.86 503.825 288.67 506.8 286.215 509.961 C 286.044 510.181 288.699 512.597 290.041 513.992 M 311.542 537.299 C 300.978 531.582 290.414 525.866 279.771 520.107 C 273.331 530.461 267.197 540.324 260.717 550.741 C 262.4 550.843 263.194 550.891 264.271 551.584 C 265.142 554.883 267.092 555.171 269.87 553.751 C 272.055 552.635 274.279 551.409 276.632 550.851 C 281.55 549.684 286.55 548.831 291.545 548.034 C 294.887 547.5 298.307 546.824 301.644 547.02 C 309.27 547.47 311.991 545.256 311.542 537.299 Z"></path>
      <path fill="#8B5E2E" opacity="1.000000" stroke="none" d="M 305.667 578.515 C 306.945 578.171 316.215 576.11 318.444 575.584 C 335.999 571.441 353.527 567.181 371.063 562.957 C 372.298 563.755 373.533 564.552 374.894 566.052 C 375.042 567.861 375.063 568.969 375.084 570.077 C 375.084 570.077 374.996 570.414 374.596 570.424 C 370.102 570.953 365.994 571.231 362.02 572.223 C 351.308 574.897 340.769 578.323 330.074 581.069 C 318.202 584.118 306.259 587.401 294.354 590.323 C 285.461 592.505 276.484 593.716 267.69 596.244 C 254.833 599.939 242.383 604.483 229.566 608.324 C 224.812 609.748 219.896 610.261 215.08 611.478 C 213.156 605.472 213.048 604.823 220.329 601.287 C 225.866 599.695 230.825 598.412 235.776 597.101 C 259.08 590.932 282.389 584.781 305.667 578.515 Z"></path>
      <path fill="#895F30" opacity="1.000000" stroke="none" d="M 324.324 411.737 C 324.32 411.931 323.952 412.384 323.92 413.217 C 322.66 415.529 321.587 417.353 320.166 418.845 C 316.094 423.123 313.077 427.111 309.372 431.674 C 304.501 437.672 299.644 444.238 295.26 450.616 C 290.705 457.243 285.815 463.86 281.254 470.482 C 279.024 473.719 276.225 476.609 274.067 479.887 C 271.597 483.639 267.618 487.055 268.954 492.577 C 267.926 494.277 266.987 495.762 265.82 496.857 C 263.386 493.998 260.686 492.198 258.482 489.289 C 259.123 487.284 259.917 484.651 260.851 482.875 C 262.71 480.105 264.183 477.574 266.048 474.898 C 269.157 471.466 272.272 468.024 275.259 464.409 C 276.043 463.396 273.87 464.332 275.324 462.219 C 267.994 463.848 264.687 460.464 259.537 466.008 C 256.956 468.786 249.391 466.977 246.879 463.208 C 258.096 459.759 270.455 456.169 281.361 452.769 C 283.693 452.042 286.117 450.418 287.652 448.522 C 295.258 439.134 302.58 429.515 310.216 419.722 C 313.942 415.171 318.762 412.322 324.324 411.737 Z"></path>
      <path fill="#8B5E2E" opacity="1.000000" stroke="none" d="M 185.681 443.408 C 185.958 442.937 186.626 441.647 187.348 440.871 C 204.62 436.98 221.502 434.333 238.154 430.068 C 257.741 425.05 277.064 419.001 296.486 413.345 C 304.726 410.945 312.926 408.077 321.145 405.602 C 321.995 405.743 324.143 406.444 325.059 407.174 C 314.641 414.094 302.09 418.468 290.417 421.995 C 275.981 426.357 261.45 430.4 246.969 434.613 C 227.65 440.233 208.194 445.638 187.854 445.061 C 187.219 445.043 186.302 443.915 185.681 443.408 Z"></path>
      <path fill="#8A6134" opacity="1.000000" stroke="none" d="M 183.939 435.807 C 191.084 433.413 198.215 430.616 205.454 429.114 C 238.179 422.325 270.714 414.855 302.301 403.749 C 307.462 401.935 313.084 399.33 318.544 397.379 C 319.871 397.972 321.289 399.865 321.621 400.52 C 305.881 406.88 290.115 413.201 274.219 418.722 C 267.078 421.203 259.285 422.155 251.88 423.879 C 232.715 428.343 213.541 432.549 194.393 437.086 C 191.222 437.837 188.453 439.359 185.343 440.367 C 185.039 440.002 183.854 438.628 183.939 435.807 Z"></path>
      <path fill="#885E31" opacity="1.000000" stroke="none" d="M 279.945 499.951 C 284.843 506.124 284.742 506.852 279.032 512.167 C 277.732 513.377 276.182 514.878 275.852 516.474 C 274.516 522.949 270.593 527.708 266.693 532.755 C 262.797 537.795 259.973 543.66 256.647 549.143 C 252.951 555.235 249.211 561.301 245.503 567.385 C 242 573.132 239.059 579.342 234.802 584.459 C 232.496 587.23 227.064 588.767 223.144 590.531 C 222.811 590.134 223.762 589.105 224.196 588.234 C 228.392 580.997 232.211 574.224 236.232 567.215 C 238.617 563.381 240.8 559.782 243.247 555.958 C 247.385 549.401 251.22 543.045 255.144 536.745 C 259.664 529.489 264.263 522.282 269.164 514.954 C 271.322 511.943 273.144 509.033 275.212 505.895 C 276.955 503.763 278.45 501.857 279.945 499.951 Z"></path>
      <path fill="#704E28" opacity="1.000000" stroke="none" d="M 214.981 611.416 C 219.649 609.881 224.518 608.838 229.272 607.414 C 242.089 603.573 254.805 599.388 267.662 595.693 C 276.456 593.165 285.417 591.217 294.31 589.035 C 306.215 586.113 318.154 583.323 330.026 580.274 C 340.721 577.528 351.308 574.361 362.02 571.687 C 365.994 570.695 370.559 570.546 375.062 570.042 C 375.107 570.59 375.108 570.889 375.123 571.594 C 364.827 574.82 354.556 577.875 344.207 580.639 C 321.856 586.608 299.433 592.308 277.102 598.346 C 258.304 603.428 239.593 608.83 220.442 614.097 C 218.403 613.313 216.766 612.523 214.981 611.416 Z"></path>
      <path fill="#765129" opacity="1.000000" stroke="none" d="M 243.111 556.17 C 240.928 559.768 238.957 563.212 236.205 567.245 C 231.644 568.764 227.479 570.453 223.486 571.538 C 218.131 571.917 216.631 567.909 217.53 562.814 C 219.345 561.357 220.692 560.694 221.692 559.364 C 224.052 556.22 225.732 553.282 227.701 549.876 C 231.135 543.935 234.392 537.637 237.822 531.693 C 239.871 528.143 241.679 524.772 244.274 521.632 C 247.452 517.788 248.306 515.389 243.969 511.999 C 244.997 509.78 246.025 507.561 247.328 504.747 C 245.553 503.958 243.987 503.262 242.209 502.039 C 241.995 501.512 241.944 500.863 242.313 500.932 C 248.408 503.988 254.775 506.894 260.156 509.891 C 258.319 511.585 255.932 513.331 254.797 515.229 C 250.026 523.202 245.443 531.287 240.812 539.342 C 237.199 545.627 233.616 551.93 229.52 559.099 C 234.765 557.964 239.002 557.06 243.111 556.17 Z"></path>
      <path fill="#765129" opacity="1.000000" stroke="none" d="M 268.883 492.716 C 267.5 487.511 271.154 483.526 273.624 479.774 C 275.782 476.496 278.632 473.68 280.862 470.443 C 285.423 463.821 289.68 456.99 294.235 450.363 C 298.619 443.985 302.944 437.532 307.815 431.534 C 311.52 426.971 316.094 423.123 320.166 418.845 C 321.587 417.353 322.63 415.179 323.879 413.157 C 327.323 415.576 326.332 418.696 323.893 421.42 C 322.712 422.738 321.445 423.978 319.699 425.596 C 313.487 432.602 307.793 439.263 301.852 446.151 C 300.738 447.919 299.607 450.319 300.058 450.323 C 309.241 450.894 317.513 447.161 325.836 444.845 C 323.983 446.372 321.787 448.188 319.572 449.799 C 311.722 452.485 303.295 455.319 295.837 458.006 C 294.168 458.608 292.163 459.297 291.177 460.6 C 286.505 466.774 282.133 473.174 277.316 479.972 C 280.147 481.462 282.758 482.517 285.001 484.094 C 288.182 486.33 290.685 485.907 293.289 483.133 C 295.754 485.224 297.922 487.16 300.09 489.096 C 300.23 490.056 300.507 491.261 300.736 492.649 C 297.959 492.273 294.751 492.209 292.07 490.995 C 287.013 488.705 282.829 488.592 278.182 492.146 C 275.096 491.17 271.407 488.086 268.883 492.716 Z"></path>
      <path fill="#865D2F" opacity="1.000000" stroke="none" d="M 277.882 492.05 C 282.191 488.446 287.065 488.057 292.122 490.347 C 294.803 491.561 297.823 492.027 300.813 492.577 C 313.671 499.707 326.395 507.108 339.15 514.455 C 340.858 515.438 342.722 516.152 344.894 517.024 C 349.983 520.478 355.744 523.51 355.357 531.051 C 352.117 530.173 349.094 528.787 346.471 527.167 C 338.378 522.166 330.554 516.725 322.42 511.794 C 318.589 509.471 314.304 507.887 310.197 506.03 C 303.479 502.991 296.738 500.002 290.007 496.991 C 287.806 496.247 285.605 495.503 282.865 494.793 C 280.844 493.901 279.363 492.976 277.882 492.05 Z"></path>
      <path fill="#865D2F" opacity="1.000000" stroke="none" d="M 259.91 510.125 C 254.184 507.137 248.459 504.15 242.016 501.089 C 240.835 501.032 240.371 501.049 239.907 501.066 C 239.907 501.066 239.974 501.106 239.874 500.798 C 237.894 498.694 236.32 496.133 234.08 495.234 C 224.452 491.372 214.622 488.018 204.882 484.434 C 201.861 483.322 198.584 482.473 195.592 481.282 C 195.879 480.532 196.621 479.04 197.421 477.988 C 202.069 478.037 205.771 478.329 210.09 478.967 C 220.082 483.081 230.151 487.368 239.995 491.097 C 244.567 492.829 249.261 494.24 253.999 496.152 C 257.423 498.323 260.748 500.138 264.416 501.989 C 266.176 502.676 267.592 503.327 268.775 504.219 C 266.311 506.652 264.082 508.844 261.629 511.016 C 261.406 510.995 260.973 510.878 260.817 510.707 C 260.428 510.334 260.175 510.158 259.934 510.037 C 259.965 510.064 259.91 510.125 259.91 510.125 Z"></path>
      <path fill="#895F30" opacity="1.000000" stroke="none" d="M 187.528 450.39 C 187.528 450.39 187.994 449.247 188.282 448.764 C 193.142 448.128 197.288 447.921 202.044 448.055 C 215.409 453.502 228.945 458.985 242.368 464.371 C 246.934 466.385 251.259 468.173 255.867 470.199 C 258.101 471.294 261.134 472.557 262.845 473.655 C 256.417 479.042 255.183 479.186 248.2 474.772 C 245.303 472.941 242.22 471.621 239.048 470.275 C 232.707 467.584 226.158 464.783 219.69 462.427 C 211.171 459.323 202.563 456.618 194.005 453.618 C 191.792 452.842 189.654 451.415 187.528 450.39 Z"></path>
      <path fill="#744F28" opacity="1.000000" stroke="none" d="M 202.216 448.089 C 197.644 448.242 193.073 448.396 188.223 448.81 C 185.024 448.132 184.482 446.134 185.721 443.225 C 186.61 443.493 187.219 444.429 187.854 444.447 C 208.194 445.024 227.65 440.233 246.969 434.613 C 261.45 430.4 275.981 426.357 290.417 421.995 C 302.09 418.468 313.95 413.613 324.564 406.954 C 326.669 407.706 326.209 409.881 324.277 411.832 C 318.397 412.582 314.348 415.165 310.232 419.745 C 302.998 422.033 296.004 424.199 289.324 426.02 C 270.251 431.219 251.174 436.41 232.031 441.34 C 222.167 443.88 212.159 445.858 202.216 448.089 Z"></path>
      <path fill="#8A6134" opacity="1.000000" stroke="none" d="M 223.581 466.969 C 225.867 467.861 228.5 468.809 230.786 469.702 C 230.84 470.264 230.258 471.617 230.312 472.179 C 222.884 473.712 215.107 475.649 207.642 476.966 C 204.084 477.594 200.602 477.312 196.589 477.73 C 193.941 475.358 193.016 472.191 197.43 470.167 C 206.346 468.96 215.342 467.937 223.581 466.969 Z"></path>
      <path fill="#765129" opacity="1.000000" stroke="none" d="M 187.588 450.19 C 189.982 450.979 192.035 452.215 194.248 452.991 C 202.806 455.991 211.469 458.696 219.988 461.8 C 226.456 464.156 232.792 466.883 239.133 469.574 C 242.305 470.92 245.528 472.278 248.425 474.109 C 255.408 478.523 255.336 478.637 262.087 473.291 C 263.785 473.691 264.92 474.29 266.055 474.889 C 264.532 477.551 263.009 480.213 260.799 482.927 C 254.353 480.418 248.706 477.548 242.791 475.424 C 239.752 474.333 236.125 473.86 232.956 474.351 C 225.308 475.535 217.774 477.451 210.194 479.072 C 206.059 478.721 201.924 478.37 197.335 478.023 C 196.544 477.969 196.472 477.572 195.846 476.969 C 199.761 476.333 203.992 476.549 207.55 475.921 C 215.015 474.604 222.416 472.92 229.844 471.387 C 229.79 470.825 229.736 470.264 229.682 469.702 C 227.396 468.809 225.11 467.917 222.521 466.842 C 219.923 465.789 217.673 464.769 215.327 464.076 C 208.282 461.996 201.198 460.043 194.13 458.04 C 191.091 456.189 186.098 456.087 187.588 450.19 Z"></path>
      <path fill="#765129" opacity="1.000000" stroke="none" d="M 290.184 497.032 C 296.743 499.761 303.479 502.991 310.197 506.03 C 314.304 507.887 318.589 509.471 322.42 511.794 C 330.554 516.725 338.378 522.166 346.471 527.167 C 349.094 528.787 352.162 529.686 355.389 530.939 C 354.931 533.082 354.11 535.2 352.689 537.623 C 347.789 538.642 343.488 539.356 339.187 540.07 C 337.015 538.78 334.842 537.491 332.015 535.814 C 336.11 534.614 339.349 533.867 342.424 532.693 C 344.536 531.885 345.547 530.448 342.098 528.758 C 339.763 527.286 337.938 526.143 336.081 525.057 C 322.387 517.048 308.687 509.049 294.989 501.048 C 293.443 499.884 291.902 498.479 290.184 497.032 Z"></path>
      <path fill="#784F22" opacity="1.000000" stroke="none" d=" M185.184265,440.318726 C188.164215,439.066071 191.221832,437.837402 194.392578,437.086121 C213.540833,432.549103 232.714844,428.120819 251.880493,423.657257 C259.284851,421.932831 266.908539,420.840942 274.050018,418.360229 C289.945892,412.838654 305.600708,406.623108 321.623962,400.492004 C321.708313,401.963898 321.522461,403.634186 321.240631,405.618652 C312.926239,408.407623 304.726013,410.944977 296.485748,413.344696 C277.063873,419.000732 257.740509,425.050049 238.153763,430.067688 C221.501785,434.333435 204.537262,437.379150 187.295761,440.997742 C186.358414,440.874969 185.836319,440.719177 185.184265,440.318726 z"></path>
      <path fill="#885E31" opacity="1.000000" stroke="none" d="M 244.111 511.735 C 248.719 514.926 248.371 517.798 245.193 521.642 C 242.598 524.782 240.554 528.411 238.505 531.961 C 235.075 537.905 231.919 544.006 228.485 549.947 C 226.516 553.353 224.37 556.682 222.01 559.826 C 221.01 561.156 219.256 561.92 217.491 562.959 C 217.785 559.281 218.434 555.585 219.147 551.506 C 223.056 545.294 227.024 539.542 230.716 533.619 C 235.077 526.622 239.613 519.015 244.111 511.735 Z"></path>
      <path fill="#784F22" opacity="1.000000" stroke="none" d="M 305.667 578.515 C 282.389 584.781 259.08 590.932 235.776 597.101 C 230.825 598.412 226.114 599.877 220.822 601.198 C 220.468 601.034 220.202 600.663 220.176 600.19 C 221.849 598.92 223.416 597.495 225.233 597.02 C 237.185 593.892 249.208 591.034 261.174 587.956 C 269.836 585.729 278.422 583.205 287.086 580.988 C 293.576 579.327 327.252 570.755 333.035 569.153 C 341.43 566.828 349.905 564.774 358.397 562.825 C 362.242 561.943 366.211 561.597 370.543 560.998 C 370.984 561.426 371.009 562.25 371.049 563.015 C 353.531 567.567 335.999 571.441 318.444 575.584 C 316.788 575.975 306.401 578.317 305.667 578.515 Z"></path>
      <path fill="#744F28" opacity="1.000000" stroke="none" d=" M195.639709,481.123962 C198.893570,482.065582 201.861176,483.321930 204.881989,484.433716 C214.621689,488.018341 224.452454,491.371643 234.079590,495.234131 C236.320297,496.133118 237.894089,498.694275 239.853577,500.831299 C229.535141,497.563995 219.148285,493.925446 208.730865,490.376556 C206.890091,489.749451 204.921890,489.496429 202.623779,489.060669 C199.050964,487.293579 194.134064,487.084015 195.639709,481.123962 z"></path>
      <path fill="#704E28" opacity="1.000000" stroke="none" d="M 303.967 483.351 C 302.141 477.912 306.836 474.352 309.743 470.852 C 316.977 462.142 324.042 453.359 331.452 444.455 C 335.244 446.581 334.109 449.598 332.192 452.189 C 331.049 453.733 329.588 455.043 328.083 456.744 C 324.804 459.816 321.401 462.331 318.689 465.448 C 313.831 471.031 308.873 477.392 303.967 483.351 Z"></path>
      <path fill="#765129" opacity="1.000000" stroke="none" d="M 253.999 496.152 C 255.392 493.586 256.884 491.376 258.655 488.967 C 261.182 491.34 263.431 493.91 265.865 496.769 C 265.387 498.465 264.553 500.074 263.896 501.818 C 260.576 500.339 257.423 498.323 253.999 496.152 Z"></path>
      <path fill="#865D2F" opacity="1.000000" stroke="none" d="M 299.002 451.001 C 299.87 449.46 300.363 447.885 301.845 446.098 C 309.032 443.209 315.981 440.598 322.555 437.953 C 324.39 439.177 326.233 440.387 328.056 441.628 C 329.163 442.381 330.239 443.179 331.588 444.508 C 324.463 453.642 316.977 462.142 309.743 470.852 C 306.836 474.352 302.658 477.496 304.194 483.1 C 303.004 484.967 301.414 487.208 299.957 489.272 C 297.523 487.534 295.358 485.835 293.062 483.455 C 297.807 476.995 303.119 470.402 307.935 464.341 C 311.692 459.61 315.325 454.781 319.013 449.996 C 320.866 448.469 322.719 446.942 324.572 445.415 C 316.249 447.731 308.633 451.573 299.451 451.003 C 299 451 299.002 451.001 299.002 451.001 Z"></path>
      <path fill="#865D2F" opacity="1.000000" stroke="none" d=" M264.130005,551.261353 C273.155914,548.308350 282.303894,545.607544 291.497101,543.070557 C298.021698,541.270020 304.607300,539.690735 311.550476,537.924561 C311.990906,545.256470 309.270447,547.469543 301.643799,547.020264 C298.306671,546.823669 294.886993,547.500305 291.545258,548.033691 C286.549744,548.830933 281.550079,549.683777 276.632233,550.850525 C274.278870,551.408875 272.054749,552.635315 269.870270,553.751343 C267.091705,555.170898 265.142090,554.882629 264.130005,551.261353 z"></path>
      <path fill="#765129" opacity="1.000000" stroke="none" d="M 242.368 464.371 C 243.824 463.766 245.521 463.386 247.6 462.973 C 250.732 466.43 256.568 468.099 259.149 465.321 C 264.299 459.777 270.729 462.095 278.059 460.466 C 276.605 462.579 276.395 463.272 275.203 464.418 C 268.361 466.445 261.578 468.326 255.366 470.022 C 251.041 468.234 246.934 466.385 242.368 464.371 Z"></path>
      <path fill="#765129" opacity="1.000000" stroke="none" d="M 269.196 514.988 C 266.681 513.924 263.778 512.315 261.38 510.888 C 263.39 508.432 266.311 506.652 268.775 504.219 C 270.214 505.008 272.631 505.904 274.729 506.653 C 273.247 509.663 271.354 511.977 269.196 514.988 Z"></path>
    </g>
    <path fill="#C3C3C5" opacity="1.000000" stroke="none" d=" M286.691620,397.709412 C261.814636,407.646027 236.527267,414.746063 210.435211,418.737335 C203.245102,419.837158 195.854095,419.651306 188.551254,419.960754 C187.249207,420.015930 185.728500,419.951782 184.657852,419.335846 C182.674149,418.194702 179.682465,416.783386 179.453476,415.155060 C179.199478,413.348999 181.089325,410.383698 182.878845,409.304016 C188.988007,405.618073 195.249893,402.017914 201.836472,399.319977 C228.451263,388.418335 256.077576,381.023376 284.587769,377.268433 C291.739594,376.326538 299.118591,376.806946 306.369690,377.141724 C308.105286,377.221893 310.534851,379.022430 311.170990,380.619110 C311.640869,381.798492 310.167450,384.686615 308.783325,385.513184 C301.674866,389.758301 294.315155,393.582642 286.691620,397.709412 z" style="pointer-events: none;" id="object-3">
      <bx:title>Flask Opening</bx:title>
    </path>
    <g style="pointer-events: none;" id="object-4">
      <bx:title>Dark Liquid</bx:title>
      <path fill="#707DD6" opacity="1.000000" stroke="none" d="M 596.676 770.745 C 574.107 785.461 551.522 800.197 528.62 814.651 C 527.53 815.339 525.527 815.606 523.953 816.127 C 536.448 798.5 547.89 778.761 570.872 771.856 C 579.271 769.332 587.703 767.875 596.676 770.745 Z"></path>
      <path fill="#6472D6" opacity="1.000000" stroke="none" d="M 596.652 770.758 C 599.899 771.499 609.853 775.902 611.737 777.979 C 609.405 778.407 592.729 786.123 586.49 790.136 C 574.086 798.113 562.46 807.71 550.194 815.904 C 537.734 824.228 523.994 831.024 508.906 834.18 C 513.367 828.628 518.017 822.886 522.945 817.018 C 523.568 816.302 523.761 816.234 523.987 816.061 C 525.558 815.533 527.238 815.095 528.328 814.407 C 551.23 799.953 573.77 785.243 596.652 770.758 Z" style="" transform="matrix(1, -0.000193000014, 0.000193000014, 1, -0.155113527432, 0.108137063973)"></path>
      <path fill="#5B6CD6" opacity="1.000000" stroke="none" d="M 614.284 782.389 C 614.447 785.236 581.055 802.19 566.745 811.577 C 544.328 826.282 523.165 842.59 497.474 851.432 C 495.167 852.227 492.215 851.526 489.594 852.506 C 494.366 847.616 509 834.017 509.048 834.003 C 524.183 830.834 536.432 822.086 548.892 813.762 C 561.158 805.568 573.303 797.188 585.707 789.211 C 591.946 785.198 598.56 781.735 605.187 778.383 C 606.876 777.528 609.26 778.046 611.709 777.942 C 612.694 779.06 613.637 780.968 614.284 782.389 Z"></path>
      <path fill="#5566D5" opacity="1.000000" stroke="none" d="M 613.356 790.171 C 597.58 795.694 581.492 801.999 568.797 812.928 C 549.039 829.938 527.767 844.568 504.431 856.174 C 495.264 860.733 468.59 871.349 467.328 871.588 C 467.168 870.238 465.923 869.437 465.806 867.718 C 466.347 866.807 487.769 853.395 487.936 853.178 C 487.936 853.178 489.995 851.981 490.366 851.973 C 492.98 850.983 495.167 849.84 497.474 849.045 C 523.165 840.203 544.799 824.582 566.217 808.457 C 580.153 797.966 595.688 787.578 613.133 783.522 C 613.142 784.911 613.359 788.365 613.356 790.171 Z"></path>
      <path fill="#5061D2" opacity="1.000000" stroke="none" d="M 613.441 788.264 C 613.446 789.98 612.889 794.387 612.88 796.53 C 605.708 799.542 597.69 803.792 590.504 806.297 C 579.431 810.156 571.996 816.797 563.083 823.669 C 550.207 833.596 537.259 844.592 523.664 853.48 C 508.553 863.359 493.032 873.359 477.047 881.73 C 459.365 890.991 439.137 893.104 419.081 890.082 C 414.271 889.357 388.267 878.058 390.878 873.954 C 399.58 875.298 408.488 877.872 417.318 878.697 C 422.756 879.205 428.556 878.139 433.915 876.723 C 444.769 873.854 455.432 870.267 466.511 867.258 C 467.008 868.889 474.313 868.418 476.097 867.596 C 485.401 863.306 494.914 859.447 504.081 854.888 C 527.417 843.282 548.915 828.848 568.673 811.838 C 581.368 800.909 597.677 793.371 613.441 788.264 Z"></path>
      <path fill="#485CD2" opacity="1.000000" stroke="none" d="M 588.771 850.976 C 576.635 863.636 392.725 971.2 385.434 888.202 C 382.723 884.877 368.118 861.27 366.844 859.51 C 372.308 862.438 381.992 868.906 387.915 872.167 C 388.592 872.692 388.836 872.846 389.105 872.959 C 389.27 872.987 389.435 873.015 389.975 873.272 C 390.55 873.689 390.772 873.845 391.018 873.968 C 391.018 873.968 391.02 873.991 391.08 874.287 C 392.004 875.177 392.795 875.958 393.745 876.332 C 398.188 878.081 402.754 879.537 407.123 881.446 C 411.591 883.398 415.67 886.846 420.288 887.746 C 440.195 891.628 459.365 887.946 477.047 878.685 C 493.032 870.314 508.546 860.916 523.657 851.037 C 537.252 842.149 550.207 832.239 563.083 822.312 C 571.996 815.44 579.431 806.591 590.504 802.732 C 597.69 800.227 606.588 796.84 613.756 794.684 C 617.709 798.617 601.58 837.614 588.771 850.976 Z"></path>
      <path fill="#4156D1" opacity="1.000000" stroke="none" d="M 610.99 854.819 C 609.783 898.408 445.547 963.036 424.315 908.159 C 424.444 907.748 424.904 907.268 425.31 907.309 C 443.04 909.115 459.181 903.581 474.672 896.014 C 482.64 892.121 490.058 887.058 497.561 882.269 C 507.06 876.206 516.982 870.604 525.661 863.507 C 539.266 852.382 552.786 840.934 564.857 828.214 C 577.556 814.832 595.042 804.592 614.039 802.967 C 613.73 808.961 611.948 848.073 610.99 854.819 Z"></path>
    </g>
    <g style="pointer-events: none;" id="object-5">
      <bx:title>Light Liquid</bx:title>
      <path fill="#6EA4DD" opacity="1.000000" d="M 295.544 816.089 C 295.856 816.176 297.751 844.734 296.207 845.863 C 295.43 846.431 174.276 884.024 171.104 874.888 C 165.126 881.155 147.73 869.269 145.469 870.976 C 156.247 854.897 170.425 842.187 187.246 832.178 C 201.373 823.771 216.353 817.67 232.429 814.586 C 253.519 810.54 274.634 810.263 295.544 816.089 Z" style=""></path>
      <path fill="#68A1DF" opacity="1.000000" d="M 223.069 883.138 C 216.119 892.451 129.063 915.323 135.522 887.003 C 137.57 882.606 152.684 855.879 168.545 845.04 C 158.657 865.187 169.667 877.401 180.711 867.343 C 192.854 861.035 193.631 862.649 199.518 860.978 C 208.268 858.494 216.46 854.774 225.694 853.44 C 234.205 852.211 242.49 848.512 250.516 845.069 C 259.988 841.005 269.583 838.91 279.913 838.742 C 300.089 838.916 296.08 825.953 291.138 825.634 C 289.798 825.547 288.079 824.617 287.742 823.663 C 287.41 822.723 288.274 820.637 289.207 820.117 C 291.626 818.767 294.371 818.002 296.987 817.004 C 326.551 822.62 366.408 857.208 366.753 859.09 C 369.803 919.712 223.96 881.944 223.069 883.138 Z" style=""></path>
      <path fill="#639FDE" opacity="1.000000" d="M 366.9 859.38 C 368.515 861.351 386.265 883.005 389.445 886.202 C 373.483 885.108 253.019 871.801 252.997 871.634 C 252.718 868.402 260.154 862.04 263.397 861.67 C 264.877 861.501 266.346 861.044 267.821 861.04 C 283.961 860.994 300.104 860.837 316.239 861.12 C 320.986 861.203 325.697 863.137 330.447 863.249 C 340.831 863.492 351.236 863.259 361.617 862.841 C 363.389 862.77 365.084 860.811 366.9 859.38 Z" style=""></path>
      <path fill="#5F9CDD" opacity="1.000000" d="M 406.973 900.176 C 406.763 900.65 409.013 905.541 402.694 907.691 C 354.365 924.133 143.761 976.463 123.532 923.053 C 125.464 914.672 127.571 906.26 130.099 897.975 C 131.194 894.385 133.154 891.059 135.333 887.307 C 141.268 885.868 144.348 889.171 146.869 892.934 C 149.461 896.802 152.757 898.766 157.342 897.962 C 161.866 897.168 166.524 896.574 170.788 894.991 C 181.134 891.151 191.273 886.754 201.523 882.65 C 205.447 881.079 209.466 879.743 213.407 878.213 C 219.679 875.777 225.864 873.105 232.195 870.839 C 237.696 868.871 264.744 870.521 266.17 870.737 C 272.688 871.721 279.159 873.043 285.69 873.914 C 303.681 876.315 321.666 878.806 339.706 880.775 C 355.793 882.53 371.951 883.634 388.337 885.223 C 394.76 890.227 400.922 895.035 406.973 900.176 Z" style=""></path>
      <path fill="#5A99DE" opacity="1.000000" d="M 284.83 890.547 C 292.925 890.918 386.062 900.837 395.174 902.045 C 396.471 902.217 405.019 903.844 406.973 900.176 C 412.507 902.473 417.929 905.103 423.986 908.032 C 445.598 918.748 467.789 923.563 491.061 920.687 C 502.984 919.214 514.848 916.288 526.356 912.765 C 534.835 910.17 542.694 905.544 551.089 902.077 C 552.639 903.339 565.831 904.319 565.483 905.77 C 541.284 1006.715 134.648 934.008 134.324 931.692 C 135.611 929.244 147.571 928.668 151.607 925.392 C 172.011 908.363 212.312 898.276 219.796 896.308 C 226.773 894.473 233.729 892.169 240.821 890.598 C 255.453 887.359 270.169 889.875 284.83 890.547 Z" style=""></path>
      <path fill="#5195DC" opacity="1.000000" d="M 551.089 902.077 C 559.851 894.079 569.171 886.65 577.781 878.472 C 582.876 873.633 588.806 865.384 593.602 859.775 C 594.263 866.236 605.293 893.401 591.645 913.202 C 587.679 918.956 534.419 967.141 529.526 972.193 C 514.732 987.47 347.645 952.746 346.47 948.45 C 346.198 947.796 145.528 1008.076 141.306 1005.766 C 138.029 1003.973 133.43 996.055 129.568 998.588 C 126.882 987.2 122.994 973.316 121.215 961.789 C 119.949 953.593 120.816 945.067 121.112 936.032 C 121.153 932.681 122.838 923.444 123.479 923.385 C 127.56 925.192 131.517 926.951 134.872 929.503 C 142.944 935.641 181.62 936.499 189.921 933.76 C 194.514 932.245 281.374 917.353 290.045 913.793 C 311.247 906.413 377.603 906.06 387.287 914.676 C 395.355 917.239 403.104 920.93 411.283 922.949 C 419.172 924.896 440.317 932.468 443.277 933.131 C 452.787 935.259 462.354 937.254 471.993 938.648 C 486.53 940.749 501.199 940.908 515.616 937.98 C 524.068 936.263 532.702 934.636 538.886 927.037 C 543.832 920.959 550.161 916.021 555.572 910.29 C 556.338 909.479 555.822 906.804 555.091 905.419 C 554.394 904.1 552.639 903.339 551.089 902.077 Z" style=""></path>
      <path fill="#488FDA" opacity="1.000000" d="M 606.979 832.997 C 624.01 824.099 621.826 845.461 621.775 845.882 C 620.69 854.842 608.883 869.618 616.402 874.607 C 640.552 890.632 560.883 1000.384 501.593 985.628 C 493.427 992.497 177.833 1044.545 166.422 1045.859 C 163.461 1048.496 156.215 1042.848 155.955 1046.719 C 148.593 1036.496 129.028 999.523 129.236 998.009 C 129.167 997.561 129.098 997.114 129.036 996.327 C 132.905 993.454 137.873 993.14 141.15 994.933 C 145.372 997.243 149.102 996.746 152.934 995.91 C 161.868 993.96 170.85 991.975 179.509 989.092 C 189.061 985.911 198.409 982.012 207.598 977.876 C 218.282 973.066 228.63 967.514 239.253 962.564 C 245.867 959.482 252.718 956.909 259.47 954.123 C 265.891 951.473 272.197 948.453 278.794 946.352 C 282.73 945.099 320.908 931.761 334.903 929.697 C 344.276 925.815 384.853 933.175 385.327 933.32 C 408.362 940.334 431.253 947.884 454.491 954.147 C 465.274 957.054 476.703 958.362 487.893 958.728 C 497.714 959.049 507.623 957.149 517.471 956.039 C 539.233 953.584 556.537 942.463 571.331 927.186 C 576.224 922.134 580.651 916.112 583.51 909.735 C 587.538 900.754 590.751 891.199 592.686 881.563 C 593.943 875.304 592.305 868.463 592.114 861.58 C 594.468 856.917 597.275 853.422 599.576 849.113 C 601.824 844.903 604.653 837.944 606.979 832.997 Z" style=""></path>
      <path fill="#458DD8" opacity="1.000000" d="M 606.184 833.878 C 607.942 828.216 612.273 803.304 612.009 794.997 C 612.009 792.426 612.005 790.71 612.012 788.579 C 612.015 786.773 612.006 785.384 612.152 783.748 C 612.867 782.967 613.428 782.434 613.989 781.901 C 623.216 800.329 628.488 820.051 632.766 840.062 C 637.74 863.324 636.704 865.371 636.337 888.971 C 633.128 909.387 575.866 966.584 571.056 972.004 C 569.569 973.68 568.446 952.807 572.159 945.694 C 574.229 942.554 583.85 932.728 584.443 932.153 C 591.459 925.36 597.863 918.222 601.309 908.747 C 602.414 905.71 605.277 903.324 607.26 900.587 C 607.899 899.704 608.571 898.699 608.765 897.664 C 610.415 888.841 612.138 880.026 613.484 871.155 C 614.838 862.234 615.793 853.253 616.879 844.293 C 616.93 843.872 616.544 843.399 616.362 842.95 C 613.899 842.697 612.175 841.849 610.838 840.589 C 608.98 838.838 605.892 834.078 606.184 833.878 Z" style=""></path>
      <path fill="#3F8AD8" opacity="1.000000" d="M 636.511 912.762 C 635.944 930.53 631.672 948.179 626.772 965.143 C 617.286 997.986 602.025 1027.974 580.962 1054.906 C 558.749 1083.306 531.848 1106.258 500.341 1123.899 C 471.646 1139.965 440.969 1150.004 408.527 1154.611 C 385.387 1157.896 362.172 1157.962 338.887 1155.288 C 309.284 1151.889 281.223 1143.448 254.487 1130.556 C 236.742 1121.999 220.261 1111.334 204.886 1098.979 C 186.904 1084.529 170.621 1068.458 157.221 1049.009 C 156.744 1048.003 156.338 1047.523 155.932 1047.042 C 155.932 1047.042 155.98 1046.993 155.967 1046.687 C 156.215 1042.848 151.964 1039.306 154.925 1036.669 C 166.336 1035.355 173.545 1029.281 182.959 1026.263 C 186.749 1023.304 197.305 1018.324 202.777 1015.281 C 208.948 1012.957 215.743 1008.998 221.283 1006.226 C 237.413 998.156 253.269 989.541 269.356 981.384 C 277.621 977.194 286.24 973.704 294.513 969.529 C 297.58 967.982 352.728 947.158 381.813 953.097 C 387.116 953.826 403.26 960.24 406.791 961.608 C 417.656 965.82 428.62 969.781 439.575 973.757 C 444.484 975.539 449.373 977.529 454.441 978.676 C 458.591 979.615 463.315 980.708 468.375 981.087 C 475.913 982.221 520.036 978.128 521.58 977.745 C 528.637 975.998 535.711 974.255 542.635 972.059 C 547.793 970.424 552.722 968.038 557.703 965.954 C 560.746 964.681 590.868 946.619 592.907 943.63 C 597.717 938.21 602.97 933.148 607.421 927.454 C 610.75 923.195 613.178 918.214 615.867 913.475 C 617.654 910.325 619.283 907.076 620.816 903.794 C 622.321 900.574 623.495 897.197 625.033 893.994 C 626.75 890.417 628.812 887.005 630.533 883.428 C 631.485 881.448 632.104 879.298 632.765 877.19 C 633.245 875.658 636.003 868.898 636.385 867.334 C 637.073 868.93 636.853 876.069 636.879 877.675 C 637.074 889.642 637.04 902.56 636.511 912.762 Z" style=""></path>
    </g>
    <g style="pointer-events: none;" id="object-7">
      <bx:title>Outside Drops</bx:title>
      <ellipse style="fill-rule: nonzero; paint-order: fill; fill: url(#gradient-2-0);" cx="422.265" cy="249.403" rx="39.191" ry="38.855"></ellipse>
      <ellipse style="fill-rule: nonzero; paint-order: fill; fill: url(#gradient-2-1); transform-box: fill-box; transform-origin: 50% 50%;" cx="303.437" cy="185.887" rx="29.781" ry="29.526" transform="matrix(0.953924, 0.300049, -0.300049, 0.953924, 0.000119, 0.000202)"></ellipse>
      <ellipse style="fill-rule: nonzero; paint-order: fill; fill: url(#gradient-2-2); transform-origin: 303.437px 185.887px;" cx="303.437" cy="185.887" rx="18.797" ry="18.636" transform="matrix(0.813082, 0.582149, -0.582149, 0.813082, 91.675963, -80.606485)"></ellipse>
      <ellipse style="fill-rule: nonzero; paint-order: fill; fill: url(#gradient-0); transform-origin: 303.437px 185.887px;" cx="303.437" cy="185.887" rx="16.28" ry="16.14" transform="matrix(0.953924, 0.300049, -0.300049, 0.953924, -13.167551, -118.7352)"></ellipse>
      <ellipse style="fill-rule: nonzero; paint-order: fill; fill: url(#gradient-2-3); transform-origin: 303.437px 185.887px;" cx="303.437" cy="185.887" rx="12.379" ry="12.273" transform="matrix(0.953924, 0.300049, -0.300049, 0.953924, -91.027011, -35.563424)"></ellipse>
      <ellipse style="fill-rule: nonzero; paint-order: fill; fill: url(#gradient-2-4); transform-origin: 303.437px 185.887px;" cx="303.437" cy="185.887" rx="14.168" ry="14.046" transform="matrix(0.953924, 0.300049, -0.300049, 0.953924, 3.258485, 80.584026)"></ellipse>
      <ellipse style="fill-rule: nonzero; paint-order: fill; fill: url(#gradient-1); transform-origin: 303.437px 185.887px;" cx="303.437" cy="185.887" rx="18.76" ry="18.598" transform="matrix(0.953924, 0.300049, -0.300049, 0.953924, 48.735216, 130.462961)"></ellipse>
      <ellipse style="fill-rule: nonzero; paint-order: fill; fill: url(#gradient-2-5); transform-origin: 303.437px 185.887px;" cx="303.437" cy="185.887" rx="9.984" ry="9.898" transform="matrix(0.953924, 0.300049, -0.300049, 0.953924, -27.496847, 149.550902)"></ellipse>
      <ellipse style="fill-rule: nonzero; paint-order: fill; fill: url(#gradient-2-6); transform-origin: 303.437px 185.887px;" cx="303.437" cy="185.887" rx="12.754" ry="12.645" transform="matrix(0.711296, 0.702892, -0.702892, 0.711296, 130.163861, 163.757987)"></ellipse>
    </g>
    <g style="pointer-events: none;" id="object-8">
      <bx:title>Inside Light Droplets</bx:title>
      <ellipse style="fill-rule: nonzero; paint-order: fill; fill: url(#gradient-9); transform-box: fill-box; transform-origin: 50% 50%;" cx="521.31" cy="699.871" rx="14.689" ry="14.564" transform="matrix(0.901857, 0.432035, -0.432035, 0.901857, -27.486573, 67.249961)"></ellipse>
      <ellipse style="fill-rule: nonzero; paint-order: fill; fill: url(#gradient-3); transform-origin: 521.309px 699.871px;" cx="521.31" cy="699.871" rx="26.756" ry="26.529" transform="matrix(0.917483, 0.397776, -0.397776, 0.917483, -127.507202, 64.117742)"></ellipse>
      <ellipse style="fill-rule: nonzero; paint-order: fill; fill: url(#gradient-4); transform-origin: 521.309px 699.871px;" cx="521.31" cy="699.871" rx="24.314" ry="24.108" transform="matrix(0.820013, 0.572345, -0.572345, 0.820013, -164.492857, -53.62943)"></ellipse>
      <ellipse style="fill-rule: nonzero; paint-order: fill; fill: url(#gradient-5); transform-origin: 521.309px 699.871px;" cx="521.31" cy="699.871" rx="17.424" ry="17.276" transform="matrix(0.820013, 0.572345, -0.572345, 0.820013, -222.571562, 19.292353)"></ellipse>
      <ellipse style="fill-rule: nonzero; paint-order: fill; fill: url(#gradient-6); transform-origin: 521.309px 699.871px;" cx="521.31" cy="699.871" rx="9.747" ry="9.664" transform="matrix(0.820013, 0.572345, -0.572345, 0.820013, -308.869276, 48.49898)"></ellipse>
      <ellipse style="fill-rule: nonzero; paint-order: fill; fill: url(#gradient-7); transform-origin: 521.309px 699.871px;" cx="521.31" cy="699.871" rx="13.199" ry="13.087" transform="matrix(0.820013, 0.572345, -0.572345, 0.820013, -364.459944, 109.118273)"></ellipse>
      <ellipse style="fill-rule: nonzero; paint-order: fill; fill: url(#gradient-8); transform-origin: 521.309px 699.871px;" cx="521.31" cy="699.871" rx="8.26" ry="8.189" transform="matrix(0.820013, 0.572345, -0.572345, 0.820013, -219.205717, 88.008013)"></ellipse>
      <ellipse style="fill-rule: nonzero; paint-order: fill; fill: url(#gradient-10); transform-origin: 521.31px 699.871px;" cx="521.31" cy="699.871" rx="10.26" ry="10.173" transform="matrix(0.901857, 0.432035, -0.432035, 0.901857, -103.206246, 138.299237)"></ellipse>
    </g>
    <g style="pointer-events: none;" id="object-9">
      <bx:title>Inside Dark Droplets</bx:title>
      <ellipse style="fill: url(#gradient-12-0);" cx="337.572" cy="939.699" rx="45.575" ry="45.575"></ellipse>
      <ellipse style="fill: url(#gradient-11);" cx="194.739" cy="930.398" rx="20.103" ry="20.103"></ellipse>
      <ellipse style="fill: url(#gradient-13);" cx="198.041" cy="1026.22" rx="11.305" ry="11.305"></ellipse>
      <ellipse style="fill: url(#gradient-14);" cx="296.154" cy="1053.91" rx="24.227" ry="24.227"></ellipse>
      <ellipse style="fill: url(#gradient-15);" cx="410.849" cy="1087.89" rx="11.346" ry="11.346"></ellipse>
      <ellipse style="fill: url(#gradient-16);" cx="482.957" cy="1008.24" rx="29.107" ry="29.107"></ellipse>
      <ellipse style="fill: url(#gradient-17);" cx="572.478" cy="954.212" rx="11.116" ry="11.116"></ellipse>
      <ellipse style="fill: url(#gradient-18);" cx="252.088" cy="871.756" rx="8.387" ry="8.387"></ellipse>
    </g>
  </g>
  <path d="M 1372.219 402.352 Q 1366.653 402.352 1366.653 412.386 L 1366.653 421.615 Q 1366.653 447.103 1367.202 453.072 Q 1367.752 459.041 1368.301 461.385 Q 1368.85 463.729 1369.802 465.56 Q 1371.34 468.563 1375.955 471.932 L 1344.827 471.932 Q 1347.537 466.512 1348.123 462.703 Q 1348.709 458.895 1349.002 454.647 Q 1349.588 446.004 1349.588 431.429 Q 1349.588 413.778 1349.002 399.203 L 1348.196 379.061 Q 1347.903 371.444 1346.878 368.441 Q 1345.266 363.68 1341.604 359.871 L 1382.547 359.871 Q 1399.099 359.871 1406.497 363.387 Q 1414.334 367.049 1414.334 375.911 Q 1414.334 386.751 1405.032 393.856 Q 1394.046 402.352 1372.219 402.352 Z M 1390.493 388.912 Q 1390.493 388.912 1391.647 387.758 Q 1392.8 386.605 1393.899 384.005 Q 1394.998 381.405 1394.998 379.171 Q 1394.998 376.937 1394.375 374.74 Q 1393.753 372.542 1391.922 370.858 Q 1387.82 367.196 1377.859 367.196 Q 1371.853 367.196 1370.022 368.661 Q 1366.653 371.444 1366.653 379.574 Q 1366.653 388.729 1368.118 390.89 Q 1369.583 393.05 1371.487 393.673 Q 1373.391 394.295 1377.31 394.295 Q 1381.228 394.295 1384.707 392.757 Q 1388.186 391.219 1390.493 388.912 Z" style="fill: rgb(51, 51, 51); text-wrap-mode: nowrap;"></path>
  <path d="M 1522.377 396.328 Q 1520.619 392.08 1520.619 386.294 Q 1520.619 380.508 1521.058 376.809 Q 1521.498 373.111 1522.23 370.108 Q 1523.988 363.369 1526.552 363.369 L 1591.078 363.369 Q 1595.326 363.369 1596.791 375.967 Q 1597.157 379.483 1597.157 383.218 Q 1597.157 392.007 1595.253 396.328 Q 1588.954 376.773 1578.92 371.28 Q 1576.649 369.961 1574.452 369.961 Q 1572.255 369.961 1571.01 371.096 Q 1569.764 372.232 1568.959 374.722 Q 1567.64 379.117 1567.64 385.269 L 1567.64 412.735 L 1567.714 435.147 L 1567.714 456.387 Q 1567.714 463.565 1569.581 466.971 Q 1571.449 470.376 1573.39 472.134 Q 1575.331 473.892 1577.968 475.43 L 1540.541 475.43 Q 1545.814 471.109 1547.279 468.326 Q 1549.989 463.272 1549.989 456.387 L 1549.989 390.396 Q 1549.989 378.897 1549.11 375.564 Q 1548.231 372.232 1546.986 371.096 Q 1545.741 369.961 1543.544 369.961 Q 1541.346 369.961 1539.076 371.243 Q 1536.805 372.525 1534.645 374.612 Q 1532.484 376.7 1530.543 379.446 Q 1528.602 382.193 1526.991 385.122 Q 1523.842 390.909 1522.377 396.328 Z M 1635.457 363.369 Q 1632.747 370.181 1632.307 377.029 Q 1631.868 383.877 1631.648 388.784 Q 1631.428 393.692 1631.282 398.965 Q 1631.062 411.27 1631.062 421.377 Q 1631.062 462.832 1634.138 472.207 Q 1634.651 473.819 1635.457 475.43 L 1610.188 475.43 Q 1612.458 470.45 1612.898 466.421 Q 1613.337 462.393 1613.704 456.826 Q 1614.583 445.327 1614.583 430.313 Q 1614.583 415.298 1614.509 409.768 Q 1614.436 404.239 1614.29 398.965 Q 1613.777 373.257 1611.213 366.299 L 1610.188 363.369 Z M 1695.512 469.571 Q 1709.574 469.571 1713.676 435.293 Q 1715.067 423.721 1715.067 408.047 Q 1715.067 369.229 1695.365 369.229 Q 1675.663 369.229 1675.663 408.047 Q 1675.663 453.824 1687.455 465.835 Q 1691.117 469.571 1695.512 469.571 Z M 1695.365 476.895 Q 1675.883 476.895 1665.995 458.584 Q 1656.474 440.933 1656.474 408.047 Q 1656.474 373.843 1677.494 364.981 Q 1684.891 361.905 1695.365 361.905 Q 1725.394 361.905 1732.059 388.565 Q 1734.257 397.134 1734.257 410.611 Q 1734.257 424.087 1731.913 436.868 Q 1729.569 449.649 1724.735 458.584 Q 1714.848 476.895 1695.365 476.895 Z M 1769.924 395.669 Q 1769.777 403.286 1769.777 413.028 Q 1769.777 426.87 1770.29 444.705 Q 1770.803 462.539 1771.096 464.993 Q 1771.389 467.447 1771.828 469.278 Q 1772.561 472.281 1774.099 475.43 L 1754.47 475.43 Q 1756.667 470.962 1757.143 466.678 Q 1757.619 462.393 1757.912 458.145 Q 1758.498 449.502 1758.498 434.927 Q 1758.498 417.276 1757.912 402.701 L 1757.107 382.559 Q 1756.667 371.426 1753.591 366.739 Q 1752.346 364.981 1750.515 363.369 L 1773.293 363.369 Q 1777.614 373.33 1782.448 383.145 L 1792.409 402.627 L 1813.796 441.958 Q 1813.869 437.344 1813.869 432.071 L 1813.869 420.645 Q 1813.869 384.024 1809.401 367.764 Q 1808.523 364.761 1807.497 363.369 L 1829.543 363.296 Q 1825.881 370.62 1824.929 404.532 Q 1824.782 409.805 1824.782 414.639 L 1824.856 420.791 L 1824.856 450.674 Q 1824.856 469.644 1825.149 475.43 L 1813.283 475.43 L 1792.043 435.879 Z" style="fill: rgb(51, 51, 51); text-wrap-mode: nowrap;"></path>
</svg>